<svg xmlns="http://www.w3.org/2000/svg" xmlns:xlink="http://www.w3.org/1999/xlink" viewBox="0 0 177.9 54.3"><g fill="#fff"><use xlink:href="#B"/><path d="M82.92 41.296a7.18 7.18 0 001.7.2c1.9 0 3.3-.9 3.9-2.7l.3-.9-7.3-18.1h5.1l4.6 13.9 4.2-13.9h4.8l-7.3 19.7c-1.5 4.2-4.5 5.8-7.8 5.8-1.3 0-2.4-.1-3-.3l.8-3.7zm20.3-3.4v-18.1h3.8l.8 2.8 3.4-2.8c.5-.1 1.5-.3 2.8-.3 4.6 0 5.8 2 5.8 6.4v12h-4.8v-11.9c0-2.1-.5-2.8-2.7-2.8-1.4 0-2.8.3-4.3.7v14h-4.8zm27.3-10.9c2 0 3.5.2 4.3.3v-.9c0-2.9-1.1-3.3-3.7-3.3-1.8 0-4.1.4-6.4.9l-.7-3.6c1.8-.5 4.9-.9 7.8-.9 5.3 0 7.6 1.8 7.6 7.1v6l.9 5.2h-4l-1.2-2.9-2 2.8c-.8.2-2.1.3-3.1.3-4.5 0-6.5-1.6-6.5-5.5 0-4 2.7-5.5 7-5.5zm.3 7.8c1.4 0 2.8-.3 3.9-1v-3.7h-3.2c-2.6 0-3.5.7-3.5 2.5.1 1.6 1 2.2 2.8 2.2z"/><use xlink:href="#B" x="81.7"/></g><g fill="#fff"><path d="M32.3 7.3c-6.2-1.2-11.9-.1-14.9 2.3 2.9-1.6 7.5-2.2 12.5-1.3 7.9 1.5 13.6 6.1 12.8 10.4-.7 3.7-6.1 5.9-12.6 5.5 8.1 1.2 15.2-1.2 16-5.7.9-4.6-5.3-9.6-13.8-11.2zm-21.1 7.6C12.1 6.5 24.6 1 39.1 2.7c-.9-.2-1.9-.3-2.8-.4C21.7.6 9.2 6.1 8.3 14.5S18.4 31 32.9 32.7c-13-2.4-22.6-10-21.7-17.8zm19.4 22c-12.7 0-24-9.5-24-20.3C6.6 9.6 11 3.4 17.7 0c-8.2 3.3-14 10.4-14 18.7 0 11.4 12 21.5 25.5 21.5 11.3 0 20.6-5.5 20.8-16.6-1 9-7.3 13.3-19.4 13.3zm-3.3 6.2c-14.2 0-25.7-9.8-25.7-21.9 0-1 .1-2 .2-2.9-.7 2-1.1 4.1-1.1 6.3 0 12.1 11.5 21.9 25.7 21.9 13 0 23.7-8.3 25.4-19-3.1 9-12.9 15.6-24.5 15.6zm-1.2 5.4C11.9 48.5.4 38.4.4 26c0-1 .1-1.9.2-2.9C.2 24.7 0 26.3 0 28c0 12.5 11.5 22.5 25.7 22.5 13 0 23.8-8.6 25.4-19.7-2.6 10.2-12.8 17.7-25 17.7z"/><path d="M44.8 41.5c-4.4 6.7-12 10.8-20 10.8-7.7-.1-15-3.6-19.9-9.5-.4 1.2 8.3 11.6 20.3 11.6 8.9 0 17.1-4.9 21.2-12.8l.7-1.2-2.3 1.1z"/></g><defs><path id="B" d="M69.32 19.496c2.2 0 4.1.4 5 .6v-7.2h4.7v25h-3.8l-.3-1a16.69 16.69 0 01-.5-1.8l-2.8 2.8c-.6.1-1.7.2-2.7.2-5 0-7.5-2.3-7.5-9 0-6.3 3-9.6 7.9-9.6zm1.2 3.6c-3.1 0-4.3 1.6-4.3 5.6 0 4.2.9 5.7 3.3 5.7s3.4-.3 4.8-.7v-10.6h-3.8z"/></defs></svg>